<svg xmlns="http://www.w3.org/2000/svg" width="430" height="430" style="width:100%;height:100%;transform:translate3d(0,0,0)" viewBox="0 0 430 430"><defs><clipPath id="a"><path d="M0 0h430v430H0z"/></clipPath><clipPath id="d"><path d="M0 0h430v430H0z"/></clipPath><clipPath id="c"><path d="M0 0h430v430H0z"/></clipPath><clipPath id="b"><path d="M0 0h430v430H0z"/></clipPath></defs><g clip-path="url(#a)"><g clip-path="url(#b)" style="display:none"><path class="secondary" style="display:none"/><g style="mix-blend-mode:multiply;display:none"><path class="secondary" style="mix-blend-mode:multiply"/></g><path fill="none" class="primary" style="display:none"/><path fill="none" class="primary" style="display:none"/></g><g clip-path="url(#c)" style="display:block"><path fill="#4AB3FC" d="M121.32-46.13c-17.944-42.066-59.671-71.558-108.293-71.558-45.444 0-84.843 25.775-104.454 63.487A36.496 36.496 0 0 0-102.739-56c-20.227 0-36.62 16.397-36.62 36.624 0 2.709.314 5.341.871 7.882-21.794 11.473-36.677 34.307-36.677 60.648 0 37.849 30.685 68.534 68.534 68.534H90.317c46.858 0 84.848-37.986 84.848-84.844 0-35.913-22.327-66.591-53.845-78.974z" class="secondary" style="display:block" transform="translate(218.5 213) scale(.99999)"/><g opacity=".5" style="mix-blend-mode:multiply;display:block"><path fill="#4AB3FC" d="M-19.58 49.154c0-26.341 14.883-49.175 36.677-60.648a36.745 36.745 0 0 1-.872-7.882C16.225-39.603 32.619-56 52.846-56c3.951 0 7.749.64 11.312 1.799 11.948-22.977 31.251-41.507 54.782-52.492-15.097-7.045-31.928-10.995-49.688-10.995-45.444 0-84.843 25.775-104.454 63.487A36.49 36.49 0 0 0-46.514-56c-20.226 0-36.621 16.397-36.621 36.624 0 2.709.315 5.341.872 7.882-21.795 11.473-36.677 34.307-36.677 60.648 0 37.849 30.685 68.534 68.534 68.534h99.36c-37.849 0-68.534-30.685-68.534-68.534z" class="secondary" opacity="1" style="mix-blend-mode:multiply" transform="translate(161.195 213) scale(.99999)"/></g><path fill="none" stroke="#121330" stroke-linecap="round" stroke-linejoin="round" stroke-width="2" d="M-19.496-9.07c-1.457-4.037-5.312-6.93-9.851-6.93m63.933 2.588A33.513 33.513 0 0 1 37.367 0s.011 3.551-1.221 7.909" class="primary" style="display:block" transform="matrix(3.5 0 0 3.5 218.5 213.375)"/><path fill="none" stroke="#121330" stroke-linecap="round" stroke-linejoin="round" stroke-width="2" d="M34.663-13.18C29.536-25.199 17.614-33.625 3.722-33.625c-12.984 0-24.241 7.364-29.844 18.139A10.43 10.43 0 0 0-29.354-16c-5.779 0-10.463 4.685-10.463 10.464 0 .774.09 1.526.249 2.252-6.227 3.278-10.479 9.802-10.479 17.328 0 10.814 8.767 19.581 19.581 19.581h56.271c13.388 0 24.242-10.853 24.242-24.241 0-10.261-6.379-19.026-15.384-22.564z" class="primary" style="display:block" transform="matrix(3.5 0 0 3.5 218.5 213.375)"/></g><g clip-path="url(#d)" style="display:none"><path class="secondary" style="display:none"/><path class="secondary" style="display:none"/><path class="secondary" style="display:none"/><path class="secondary" style="display:none"/><path class="secondary" style="display:none"/><path class="secondary" style="display:none"/><path class="secondary" style="mix-blend-mode:multiply;display:none"/><path fill="none" class="primary" style="display:none"/><path fill="none" class="primary" style="display:none"/><path fill="none" class="primary" style="display:none"/><path fill="none" class="primary" style="display:none"/><path fill="none" class="primary" style="display:none"/><path fill="none" class="primary" style="display:none"/></g></g></svg>