<svg xmlns="http://www.w3.org/2000/svg" width="430" height="430" style="width:100%;height:100%;transform:translate3d(0,0,0)" viewBox="0 0 430 430"><defs><clipPath id="c"><path d="M0 0h430v430H0z"/></clipPath><clipPath id="e"><path d="M0 0h430v430H0z"/></clipPath><clipPath id="d"><path d="M0 0h430v430H0z"/></clipPath><filter id="a" width="100%" height="100%" x="0%" y="0%" filterUnits="objectBoundingBox"><feComponentTransfer in="SourceGraphic"><feFuncA tableValues="1.0 0.0" type="table"/></feComponentTransfer></filter><mask id="f" mask-type="alpha"><g filter="url(#a)"><path fill="#fff" d="M0 0h430v430H0z" opacity="0"/><use xmlns:ns1="http://www.w3.org/1999/xlink" ns1:href="#b"/></g></mask><g id="b" style="display:none"><path/><path fill-opacity="0" stroke-linecap="round" stroke-linejoin="round" class="primary"/></g></defs><g clip-path="url(#c)"><g clip-path="url(#d)" style="display:block"><path fill="#636D78" d="M-115.115-77.268h230.339a20 20 0 0 1 18.859 13.339l49.869 141.197h-367.904l49.983-141.21a20 20 0 0 1 18.854-13.326z" class="quaternary" style="display:block" transform="translate(215.001 175.649)"/><g opacity=".5" style="mix-blend-mode:multiply;display:block"><path fill="#636D78" d="M134.885 98.381h-35a19.999 19.999 0 0 0-18.853 13.326l-49.983 141.21h35l49.983-141.21a19.999 19.999 0 0 1 18.853-13.326z" class="quaternary" opacity="1"/></g><path fill="#393346" d="M-165-45.685c-11.046 0-20 8.954-20 20v51.37c0 11.046 8.954 20 20 20h330c11.046 0 20-8.954 20-20v-51.37c0-11.046-8.954-20-20-20h-330z" class="tertiary" style="display:block" transform="translate(215 285.008)"/><g opacity=".5" style="mix-blend-mode:multiply;display:block"><path fill="#393346" d="M30 259.323c0-11.046 8.954-20 20-20h35c-11.046 0-20 8.954-20 20v51.37c0 11.046 8.954 20 20 20H50c-11.046 0-20-8.954-20-20v-51.37z" class="tertiary" opacity="1"/></g><path fill="none" stroke="#FFC638" stroke-linecap="round" stroke-linejoin="round" stroke-width="7" d="M17.5 0c0-9.619-7.713-17.397-17.308-17.499L0-17.5c-9.567 0-17.383 7.817-17.5 17.5 0 9.683 7.817 17.5 17.5 17.5l.176-.001C9.778 17.405 17.5 9.625 17.5 0z" class="secondary" style="display:block" transform="translate(83.246 285.473)"/><path fill="none" stroke="#07A889" stroke-dasharray="0 30" stroke-linecap="round" stroke-linejoin="round" stroke-width="12" d="m189.26 300.601 180.249.094M189.26 270.601l180.249.094" class="primary" style="display:block"/></g><g clip-path="url(#e)" style="display:none"><path class="quaternary" style="display:none"/><g mask="url(#f)" style="mix-blend-mode:multiply;display:none"><path class="quaternary"/></g><path class="tertiary" style="display:none"/><path class="tertiary" style="mix-blend-mode:multiply;display:none"/><path fill="none" class="secondary" style="display:none"/><g fill="none" style="display:none"><path class="primary"/><path class="primary"/></g></g></g></svg>